<mxfile host="app.diagrams.net" modified="2023-09-26T17:54:01.465Z" agent="Mozilla/5.0 (Windows NT 10.0; Win64; x64) AppleWebKit/537.36 (KHTML, like Gecko) Chrome/117.0.0.0 Safari/537.36" etag="iEMt92QBjNA5-ogAK4e8" version="21.8.2" type="google" pages="2">
  <diagram id="mDwku48qoqfRLmOv8rcX" name="MAIN">
    <mxGraphModel grid="1" page="1" gridSize="10" guides="1" tooltips="1" connect="1" arrows="1" fold="1" pageScale="1" pageWidth="1100" pageHeight="850" math="0" shadow="0">
      <root>
        <mxCell id="0" />
        <mxCell id="1" parent="0" />
        <mxCell id="qjgolhECuz0Gn0i2c_y1-2" value="Components:&#xa;1. Climbable: Allows players to climb the object at a specified speed.&#xa;2. Collectible: Can be collected by the player.&#xa;3. Detect: Determines game-over conditions.&#xa;4. Drop: Releases items when the object perishes or is activated by predetermined conditions.&#xa;5. Health: Incorporates a universal health system (Respawn, Regeneration, etc.).&#xa;6. Indicator: Dictates the presentation of Cursors, Frames, etc.&#xa;7. NFT Display: Exhibits details of NFTs such as name, creator, etc.&#xa;8. Pickable: Allows the asset to be picked up by the player and moved to the desired location.&#xa;9. Play Sound: Emits a localized sound under defined conditions.&#xa;10. Rarity VFX: Generates light effects around the asset based on its rarity.&#xa;11. Speaker: Displays a speech bubble above the asset when interacted with or activated.&#xa;12. Toggle Behavior: Enables or disables the behavior added to the asset.&#xa;13. Victory: Establishes the conditions for victory (Victory End Game).&#xa;14. NFT Image: Facilitates the display of an image on the object based on the NFT URL.&#xa;15. Indicator LEGACY&#xa;16. Image Display: Permits the object to display an image in PNG or JPEG format.&#xa;17. Slide: Allows the player to slide over the Asset." style="text;whiteSpace=wrap;fillColor=default;" vertex="1" parent="1">
          <mxGeometry x="-1920" y="-440" width="560" height="280" as="geometry" />
        </mxCell>
        <mxCell id="qjgolhECuz0Gn0i2c_y1-5" value="01. Animated Decoration: Allows playing of multiple animations on an item.&#xa;02. Asker: Opens a dialog with a question and provides possible answers.&#xa;03. Asset Spawner: Spawns a selected asset along with its Behavior, Physics, Tags, and Components.&#xa;04. Basic Platform: Transforms the asset into a simple, linearly moving platform.&#xa;05. Bird: Allows the asset to move in a circular motion, with adjustable height, speed, and flight area.&#xa;06. Button: Converts the asset into a button, enabling it to send messages to another asset.&#xa;07. Citizen: Allows the asset to randomly walk, run, and defend itself within a defined area.&#xa;08. Door: Provides manual or message-triggered Opening and Closing animations.&#xa;09. Farmer: Moves randomly, collecting items through tags, and can also run and defend itself.&#xa;10. Healer: Roams and heals targets defined through tags and defends itself from enemies.&#xa;11. Melee Enemy: Aggressively targets and attacks specific assets within a defined area.&#xa;12. Message Broadcast: Serves as a message carrier/repeater, triggering messages to other assets.&#xa;13. Multi: Generates specific blocks around the asset.&#xa;14. Plant: Destroys the asset when a specific message is received.&#xa;15. Predator: Hunts and attacks assets, focusing on specific tags.&#xa;16. Prey: Focuses on weaker assets with specific tags and can detect and flee from enemies.&#xa;17. Replace Asset: Replaces the chosen asset with another when a specific message is received.&#xa;18. Soldier: Moves and defends within a defined area and attacks specified assets.&#xa;19. Void: Removes specific blocks around it.&#xa;20. Timed Events: Sends messages based on elapsed time from when the behavior is triggered.&#xa;21. Visual FX: Offers 114 different visual effects with adjustable parameters.&#xa;22. Weather Switch: Manages the environment&#39;s ambiance by adjusting sunlight, moonlight, cloud density, and star brightness.&#xa;23. Post Process Event: Applies visual modifiers to the player viewport, such as Psychedelic, Black &amp; White, Vintage, and Grunge.&#xa;24. Curio: Allows the asset to be collected by the player.&#xa;25. Light: Introduces customizable light sources to the experience.&#xa;26. Crowd Event: Launches a multiplayer event where players earn points by performing specific actions.&#xa;27. Actor Property: Controls visibility and/or collision, synchronized for all players.&#xa;28. Audio Streaming: Plays audio that is synchronized for all players.&#xa;29. Video Streaming: Streams video, synchronized for all players.&#xa;30. Instance Locked (Staff): Limits the number of players per instance." style="text;whiteSpace=wrap;fillColor=default;" vertex="1" parent="1">
          <mxGeometry x="-1920" y="-930" width="560" height="540" as="geometry" />
        </mxCell>
      </root>
    </mxGraphModel>
  </diagram>
  <diagram id="a_8u4K5iVSQByC189WdS" name="Page-2">
    <mxGraphModel grid="1" page="1" gridSize="10" guides="1" tooltips="1" connect="1" arrows="1" fold="1" pageScale="1" pageWidth="1100" pageHeight="850" math="0" shadow="0">
      <root>
        <mxCell id="0" />
        <mxCell id="1" parent="0" />
      </root>
    </mxGraphModel>
  </diagram>
</mxfile>
